<svg id="svg" version="1.1" xmlns="http://www.w3.org/2000/svg" xmlns:xlink="http://www.w3.org/1999/xlink" width="400" height="400" viewBox="0, 0, 400,400"><g id="svgg"><path id="path0" d="M41.016 94.230 L 41.016 156.039 28.516 168.561 C 17.916 179.179,16.016 181.253,16.016 182.205 C 16.016 183.160,17.880 185.172,28.516 195.697 L 41.016 208.067 41.016 263.213 L 41.016 318.359 199.805 318.359 L 358.594 318.359 358.594 263.191 L 358.594 208.024 371.094 195.502 C 378.682 187.901,383.594 182.690,383.594 182.241 C 383.594 181.468,376.590 174.112,365.162 162.882 L 358.594 156.428 358.594 94.425 L 358.594 32.422 199.805 32.422 L 41.016 32.422 41.016 94.230 M340.625 105.667 L 340.625 161.529 350.586 171.484 C 356.064 176.960,360.547 181.618,360.547 181.836 C 360.547 182.054,356.064 186.712,350.586 192.188 L 340.625 202.143 340.625 251.462 L 340.625 300.781 199.609 300.781 L 58.594 300.781 58.594 251.220 L 58.594 201.659 48.567 191.816 L 38.541 181.973 48.567 171.941 L 58.594 161.909 58.594 105.857 L 58.594 49.805 199.609 49.805 L 340.625 49.805 340.625 105.667 M107.628 73.587 L 106.641 74.574 106.641 115.998 C 106.641 156.901,106.650 157.432,107.422 158.203 C 109.232 160.013,144.131 159.198,151.087 157.183 C 168.276 152.204,176.693 138.879,176.721 116.602 C 176.747 96.203,171.127 84.539,157.966 77.683 C 149.486 73.265,147.508 72.958,126.280 72.762 L 108.614 72.600 107.628 73.587 M230.744 73.324 C 230.344 73.723,226.182 85.757,221.047 101.367 C 216.100 116.406,209.913 135.172,207.299 143.068 C 203.509 154.517,202.633 157.564,202.975 158.108 C 203.537 158.998,221.254 159.360,222.326 158.503 C 222.667 158.231,224.060 154.358,225.422 149.898 L 227.898 141.788 242.722 141.890 L 257.545 141.992 260.025 149.777 C 263.272 159.969,261.896 158.984,272.884 158.984 C 282.279 158.984,283.203 158.833,283.203 157.296 C 283.203 156.032,255.680 74.322,255.022 73.633 C 253.919 72.477,231.875 72.197,230.744 73.324 M143.150 91.614 C 153.082 94.201,158.319 104.886,157.014 119.903 C 155.640 135.725,149.821 140.992,133.691 141.009 L 127.344 141.016 127.344 116.016 L 127.344 91.016 134.098 91.016 C 138.905 91.016,141.514 91.188,143.150 91.614 M247.651 109.765 C 250.071 117.392,252.137 123.852,252.240 124.121 C 252.387 124.504,250.389 124.609,243.011 124.609 C 235.581 124.609,233.594 124.503,233.594 124.105 C 233.594 123.679,241.752 97.026,242.407 95.313 C 242.756 94.398,242.888 94.762,247.651 109.765 M139.038 184.955 C 119.300 188.695,108.403 204.134,108.432 228.320 C 108.465 255.765,122.393 271.610,146.484 271.610 C 164.601 271.610,177.056 262.397,180.917 246.139 C 182.249 240.532,182.520 240.665,169.395 240.511 L 162.423 240.430 161.569 243.372 C 157.569 257.161,138.986 258.961,132.320 246.205 C 124.901 232.009,128.600 208.415,139.065 203.185 C 149.241 198.100,158.976 202.824,162.084 214.355 C 162.618 216.338,161.705 216.261,172.476 215.238 C 176.979 214.811,180.904 214.459,181.197 214.457 C 182.720 214.446,179.966 204.771,177.034 199.831 C 170.077 188.109,154.526 182.021,139.038 184.955 M210.163 185.930 C 208.984 187.110,208.912 268.601,210.089 269.666 C 211.165 270.639,227.367 270.640,228.175 269.667 C 228.613 269.139,228.747 264.355,228.906 243.597 L 229.102 218.173 232.191 223.637 C 242.488 241.850,257.634 268.325,258.279 269.238 L 259.038 270.313 268.386 270.313 C 277.214 270.313,277.778 270.269,278.516 269.531 C 279.287 268.760,279.297 268.229,279.297 227.734 C 279.297 187.240,279.287 186.709,278.516 185.938 C 277.453 184.875,262.115 184.727,260.634 185.764 L 259.766 186.372 259.766 212.014 C 259.766 226.881,259.621 237.500,259.420 237.285 C 259.230 237.081,254.366 228.740,248.611 218.750 C 242.855 208.760,236.167 197.158,233.747 192.969 L 229.349 185.352 220.150 185.247 C 211.371 185.147,210.916 185.178,210.163 185.930 " stroke="none" fill="#04040d" fill-rule="evenodd"></path><path id="path1" d="M0.000 200.000 L 0.000 400.000 200.000 400.000 L 400.000 400.000 400.000 200.000 L 400.000 0.000 200.000 0.000 L 0.000 0.000 0.000 200.000 M358.594 94.044 L 358.594 156.057 371.094 168.574 C 380.917 178.411,383.594 181.303,383.594 182.081 C 383.594 182.860,380.932 185.722,371.091 195.529 L 358.588 207.987 358.689 263.173 L 358.789 318.359 199.902 318.359 L 41.016 318.359 41.002 300.293 C 40.995 290.356,40.993 265.617,40.999 245.317 L 41.009 208.408 28.512 195.889 C 17.648 185.005,16.016 183.217,16.016 182.194 C 16.016 181.170,17.638 179.399,28.517 168.542 L 41.018 156.065 40.995 94.341 C 40.983 60.393,40.983 32.485,40.994 32.324 C 41.006 32.163,112.471 32.031,199.805 32.031 L 358.594 32.031 358.594 94.044 M58.594 106.115 L 58.594 162.230 48.705 172.108 L 38.816 181.986 48.705 191.869 L 58.594 201.752 58.594 251.070 L 58.594 300.388 199.609 300.487 L 340.625 300.586 340.632 251.367 L 340.639 202.148 350.651 192.053 L 360.663 181.958 350.644 171.933 L 340.625 161.909 340.625 105.954 L 340.625 50.000 199.609 50.000 L 58.594 50.000 58.594 106.115 M145.280 73.212 C 166.680 76.937,176.712 90.647,176.745 116.211 C 176.774 138.608,169.288 151.193,152.539 156.904 C 146.247 159.050,109.432 160.218,107.355 158.338 C 106.627 157.679,106.181 75.872,106.894 74.012 C 107.631 72.094,135.515 71.513,145.280 73.212 M254.965 73.416 C 255.796 74.190,283.203 155.552,283.203 157.246 C 283.203 158.899,282.707 158.984,273.043 158.984 C 266.278 158.984,263.645 158.854,263.161 158.496 C 262.702 158.157,257.422 143.008,257.422 142.031 C 257.422 142.010,250.787 142.032,242.678 142.080 L 227.935 142.168 225.528 150.003 C 224.204 154.312,222.907 158.096,222.646 158.411 C 222.013 159.173,203.958 159.270,203.203 158.516 C 202.382 157.695,202.546 157.142,213.465 123.890 C 227.387 81.491,229.949 73.869,230.500 73.205 C 231.317 72.220,253.890 72.415,254.965 73.416 M127.344 115.854 L 127.344 140.693 135.449 140.561 L 143.555 140.430 146.383 139.104 C 153.695 135.677,156.745 129.023,156.787 116.406 C 156.849 97.690,150.749 91.041,133.496 91.022 L 127.344 91.016 127.344 115.854 M242.275 96.096 C 241.729 97.994,233.927 123.131,233.697 123.730 C 233.551 124.113,235.515 124.219,242.732 124.219 C 247.803 124.219,251.953 124.109,251.953 123.975 C 251.953 123.840,250.170 118.171,247.990 111.377 C 245.811 104.583,243.721 98.058,243.347 96.877 L 242.668 94.731 242.275 96.096 M151.172 184.385 C 161.832 185.497,170.023 189.804,175.452 197.154 C 180.099 203.444,183.247 214.072,180.618 214.590 C 178.535 215.001,165.052 216.087,163.702 215.953 C 162.266 215.811,162.358 215.965,161.176 211.711 C 157.553 198.669,138.487 197.925,132.279 210.582 C 127.823 219.667,127.726 236.703,132.080 245.547 C 138.561 258.713,157.534 257.339,161.392 243.423 C 162.462 239.566,161.806 239.762,171.896 240.278 C 182.843 240.837,182.504 240.570,180.809 247.289 C 176.857 262.956,163.136 272.362,145.117 271.756 C 120.909 270.942,107.464 254.214,108.322 225.977 C 109.108 200.120,122.845 184.947,146.289 184.043 C 146.934 184.018,149.131 184.172,151.172 184.385 M231.090 188.001 C 231.969 189.552,238.648 201.168,245.934 213.815 L 259.180 236.809 259.382 211.666 C 259.494 197.838,259.625 186.492,259.675 186.454 C 259.725 186.415,260.042 186.108,260.379 185.770 C 261.322 184.828,277.537 184.857,278.583 185.803 C 279.266 186.421,279.297 188.234,279.297 227.734 L 279.297 269.020 278.475 269.764 C 277.418 270.722,260.088 271.138,258.912 270.233 C 258.350 269.801,251.532 257.992,232.682 224.805 L 228.910 218.164 228.908 243.624 C 228.906 271.286,229.008 269.978,226.804 270.531 C 224.922 271.004,210.690 270.529,210.020 269.972 C 209.026 269.146,209.028 186.968,210.021 185.871 C 210.614 185.215,211.449 185.157,220.080 185.169 L 229.492 185.181 231.090 188.001 " stroke="none" fill="#fbfbfb" fill-rule="evenodd"></path><path id="path2" d="M157.122 116.016 C 157.122 116.768,157.202 117.075,157.301 116.699 C 157.399 116.323,157.399 115.708,157.301 115.332 C 157.202 114.956,157.122 115.264,157.122 116.016 M361.523 159.375 C 362.363 160.234,363.137 160.938,363.244 160.938 C 363.352 160.938,362.753 160.234,361.914 159.375 C 361.075 158.516,360.300 157.813,360.193 157.813 C 360.086 157.813,360.684 158.516,361.523 159.375 M51.172 169.336 C 49.571 170.947,48.350 172.266,48.457 172.266 C 48.564 172.266,49.962 170.947,51.563 169.336 C 53.163 167.725,54.385 166.406,54.277 166.406 C 54.170 166.406,52.772 167.725,51.172 169.336 M375.000 172.852 C 376.817 174.678,378.391 176.172,378.498 176.172 C 378.606 176.172,377.207 174.678,375.391 172.852 C 373.574 171.025,372.000 169.531,371.892 169.531 C 371.785 169.531,373.183 171.025,375.000 172.852 M41.602 185.156 C 42.660 186.230,43.613 187.109,43.721 187.109 C 43.828 187.109,43.050 186.230,41.992 185.156 C 40.934 184.082,39.981 183.203,39.873 183.203 C 39.766 183.203,40.543 184.082,41.602 185.156 M16.797 184.107 C 16.797 184.174,17.368 184.745,18.066 185.376 L 19.336 186.523 18.189 185.254 C 17.119 184.071,16.797 183.805,16.797 184.107 M259.559 212.109 C 259.559 225.752,259.608 231.333,259.668 224.512 C 259.728 217.690,259.728 206.528,259.668 199.707 C 259.608 192.886,259.559 198.467,259.559 212.109 M33.984 201.367 C 35.368 202.764,36.589 203.906,36.696 203.906 C 36.804 203.906,35.759 202.764,34.375 201.367 C 32.991 199.971,31.771 198.828,31.663 198.828 C 31.556 198.828,32.600 199.971,33.984 201.367 M163.379 240.113 C 163.755 240.211,164.370 240.211,164.746 240.113 C 165.122 240.015,164.814 239.934,164.063 239.934 C 163.311 239.934,163.003 240.015,163.379 240.113 M215.527 270.604 C 217.515 270.674,220.767 270.674,222.754 270.604 C 224.741 270.533,223.115 270.475,219.141 270.475 C 215.166 270.475,213.540 270.533,215.527 270.604 M263.748 270.604 C 266.046 270.673,269.913 270.673,272.342 270.604 C 274.771 270.536,272.891 270.479,268.164 270.479 C 263.438 270.479,261.450 270.535,263.748 270.604 " stroke="none" fill="#7d7c81" fill-rule="evenodd"></path><path id="path3" d="M238.401 124.511 C 240.937 124.579,244.980 124.579,247.385 124.510 C 249.790 124.442,247.715 124.386,242.773 124.386 C 237.832 124.387,235.864 124.443,238.401 124.511 M349.805 171.094 C 351.297 172.598,352.606 173.828,352.713 173.828 C 352.821 173.828,351.688 172.598,350.195 171.094 C 348.703 169.590,347.394 168.359,347.287 168.359 C 347.179 168.359,348.312 169.590,349.805 171.094 M46.274 174.316 L 44.336 176.367 46.387 174.429 C 48.292 172.628,48.617 172.266,48.325 172.266 C 48.263 172.266,47.341 173.188,46.274 174.316 M380.062 177.832 C 381.020 178.853,381.855 179.688,381.917 179.688 C 382.211 179.688,381.900 179.337,380.176 177.718 L 378.320 175.977 380.062 177.832 M36.719 204.028 C 36.719 204.096,37.290 204.667,37.988 205.298 L 39.258 206.445 38.111 205.176 C 37.041 203.992,36.719 203.727,36.719 204.028 " stroke="none" fill="#9c9c9f" fill-rule="evenodd"></path><path id="path4" d="M120.378 32.324 C 163.920 32.379,235.288 32.379,278.972 32.324 C 322.657 32.269,287.031 32.225,199.805 32.225 C 112.578 32.225,76.836 32.269,120.378 32.324 M116.113 72.558 C 119.927 72.622,126.167 72.622,129.980 72.558 C 133.794 72.494,130.674 72.442,123.047 72.442 C 115.420 72.442,112.300 72.494,116.113 72.558 M130.390 140.916 C 132.172 140.988,134.985 140.988,136.640 140.915 C 138.294 140.842,136.836 140.783,133.398 140.783 C 129.961 140.784,128.607 140.843,130.390 140.916 M235.670 142.089 C 239.712 142.153,246.216 142.153,250.123 142.089 C 254.030 142.026,250.723 141.974,242.773 141.974 C 234.824 141.974,231.628 142.026,235.670 142.089 M343.750 164.966 C 343.750 165.033,344.321 165.604,345.020 166.236 L 346.289 167.383 345.142 166.113 C 344.072 164.930,343.750 164.664,343.750 164.966 M354.688 175.977 C 355.854 177.158,356.897 178.125,357.005 178.125 C 357.112 178.125,356.245 177.158,355.078 175.977 C 353.911 174.795,352.868 173.828,352.761 173.828 C 352.654 173.828,353.521 174.795,354.688 175.977 M145.801 184.264 C 146.392 184.354,147.358 184.354,147.949 184.264 C 148.540 184.175,148.057 184.101,146.875 184.101 C 145.693 184.101,145.210 184.175,145.801 184.264 M128.633 228.516 C 128.633 229.697,128.706 230.181,128.795 229.590 C 128.885 228.999,128.885 228.032,128.795 227.441 C 128.706 226.851,128.633 227.334,128.633 228.516 M128.777 300.684 C 167.485 300.738,230.942 300.738,269.792 300.684 C 308.643 300.629,276.973 300.584,199.414 300.584 C 121.855 300.584,90.069 300.629,128.777 300.684 " stroke="none" fill="#cbcccf" fill-rule="evenodd"></path></g></svg>